/* XPM */
static char * bottom_inactive_xpm[] = {
"16 4 2 1",
" 	c #000022",
".	c #000000",
"                ",
"                ",
"                ",
"................"};
