/* XPM */
static char * bottom_left_active_xpm[] = {
"12 12 5 1",
" 	c None",
".	c #000000",
"+	c #000022",
"@	c #000044",
"#	c #000066",
".+@#        ",
".+@#        ",
".+@#        ",
".+@#        ",
".+@#        ",
".+@#        ",
".+@#        ",
".+@#        ",
".+@#########",
".+@@@@@@@@@@",
".+++++++++++",
"............"};
