/* XPM */
static char * bottom_right_inactive_xpm[] = {
"12 12 3 1",
" 	c None",
".	c #000022",
"+	c #000000",
"        ...+",
"        ...+",
"        ...+",
"        ...+",
"        ...+",
"        ...+",
"        ...+",
"        ...+",
"...........+",
"...........+",
"...........+",
"++++++++++++"};
