/* XPM */
static char * bottom_left_inactive_xpm[] = {
"12 12 4 1",
" 	c None",
".	c #000044",
"+	c #000022",
"@	c #000000",
".+++        ",
".+++        ",
".+++        ",
".+++        ",
".+++        ",
".+++        ",
".+++        ",
".+++        ",
".+++++++++++",
".+++++++++++",
".+++++++++++",
"@@@@@@@@@@@@"};
