/* XPM */
static char * maximize_toggled_pressed_xpm[] = {
"18 24 6 1",
" 	c None",
".	c #000066",
"+	c #0000AA",
"@	c #000088",
"#	c #000099",
"$	c #FFFFFF",
"                  ",
"                  ",
"                  ",
"                  ",
"                  ",
"                  ",
"  ...............+",
"  .@@@@@@@@@@@@@#+",
"  .@#############+",
"  .@####$$$$$$###+",
"  .@####$$$$$$###+",
"  .@####$####$###+",
"  .@##$$$$$$#$###+",
"  .@##$$$$$$#$###+",
"  .@##$####$$$###+",
"  .@##$####$#####+",
"  .@##$####$#####+",
"  .@##$$$$$$#####+",
"  .##############+",
"  ++++++++++++++++",
"                  ",
"                  ",
"                  ",
"                  "};
