/* XPM */
static char * maximize_toggled_inactive_xpm[] = {
"18 24 6 1",
" 	c None",
".	c #0000AA",
"+	c #000066",
"@	c #000088",
"#	c #000099",
"$	c #000033",
"                  ",
"                  ",
"                  ",
"                  ",
"                  ",
"                  ",
"  ...............+",
"  ..............@+",
"  ..###$$$$$$###@+",
"  ..###$$$$$$###@+",
"  ..###$####$###@+",
"  ..#$$$$$$#$###@+",
"  ..#$$$$$$#$###@+",
"  ..#$####$$$###@+",
"  ..#$####$#####@+",
"  ..#$####$#####@+",
"  ..#$$$$$$#####@+",
"  ..############@+",
"  .@@@@@@@@@@@@@@+",
"  ++++++++++++++++",
"                  ",
"                  ",
"                  ",
"                  "};
