/* XPM */
static char * maximize_active_xpm[] = {
"18 24 6 1",
" 	c None",
".	c #0000AA",
"+	c #000066",
"@	c #000088",
"#	c #000099",
"$	c #FFFFFF",
"                  ",
"                  ",
"                  ",
"                  ",
"                  ",
"                  ",
"  ...............+",
"  ..............@+",
"  ..#$$$$$$$$$##@+",
"  ..#$$$$$$$$$##@+",
"  ..#$#######$##@+",
"  ..#$#######$##@+",
"  ..#$#######$##@+",
"  ..#$#######$##@+",
"  ..#$#######$##@+",
"  ..#$#######$##@+",
"  ..#$$$$$$$$$##@+",
"  ..############@+",
"  .@@@@@@@@@@@@@@+",
"  ++++++++++++++++",
"                  ",
"                  ",
"                  ",
"                  "};
