/* XPM */
static char * title_4_active_xpm[] = {
"2 24 4 1",
" 	c #000000",
".	c #000022",
"+	c #000044",
"@	c #000066",
"  ",
"..",
"++",
"@@",
"  ",
"  ",
"  ",
"  ",
"  ",
"  ",
"  ",
"  ",
"  ",
"  ",
"  ",
"  ",
"  ",
"  ",
"  ",
"  ",
"  ",
"  ",
"@@",
"@@"};
