/* XPM */
static char * top_right_inactive_xpm[] = {
"4 24 4 1",
" 	c #000000",
".	c #000022",
"+	c #000044",
"@	c #000066",
"    ",
"... ",
"++. ",
"@+. ",
"@+. ",
"@+. ",
"@+. ",
"@+. ",
"@+. ",
"@+. ",
"@+. ",
"@+. ",
"@+. ",
"@+. ",
"@+. ",
"@+. ",
"@+. ",
"@+. ",
"@+. ",
"@+. ",
"@+. ",
"@+. ",
"@+. ",
"@+. "};
